<svg width="130" height="22" viewBox="0 0 130 22" fill="none" xmlns="http://www.w3.org/2000/svg">
<path d="M35.2891 17H33.4141V7.17969H28.375V17H26.5078V5.57812H35.2891V17ZM45.7734 12.6641C45.7734 14.0755 45.4115 15.1771 44.6875 15.9688C43.9635 16.7604 42.9557 17.1562 41.6641 17.1562C40.8568 17.1562 40.1432 16.974 39.5234 16.6094C38.9036 16.2448 38.4271 15.7214 38.0938 15.0391C37.7604 14.3568 37.5938 13.5651 37.5938 12.6641C37.5938 11.263 37.9531 10.1693 38.6719 9.38281C39.3906 8.59635 40.4036 8.20312 41.7109 8.20312C42.9609 8.20312 43.9505 8.60677 44.6797 9.41406C45.4089 10.2161 45.7734 11.2995 45.7734 12.6641ZM39.4844 12.6641C39.4844 14.6589 40.2214 15.6562 41.6953 15.6562C43.1536 15.6562 43.8828 14.6589 43.8828 12.6641C43.8828 10.6901 43.1484 9.70312 41.6797 9.70312C40.9089 9.70312 40.349 9.95833 40 10.4688C39.6562 10.9792 39.4844 11.7109 39.4844 12.6641ZM56.1797 20.0547H54.4688V17H48.5469V20.0547H46.8516V15.5781H47.5547C48.1693 14.6979 48.6562 13.6354 49.0156 12.3906C49.3802 11.1406 49.5964 9.79688 49.6641 8.35938H54.9141V15.5781H56.1797V20.0547ZM53.1094 15.5781V9.76562H51.25C51.151 10.8385 50.9427 11.8958 50.625 12.9375C50.3125 13.9792 49.9297 14.8594 49.4766 15.5781H53.1094ZM65.3359 8.35938V17H63.4922V9.8125H59.6172V17H57.7812V8.35938H65.3359ZM69.7266 8.35938V12.7891C69.7266 13.3047 69.6849 14.0625 69.6016 15.0625L73.9375 8.35938H76.1797V17H74.4141V12.6484C74.4141 12.4089 74.4271 12.0208 74.4531 11.4844C74.4844 10.9479 74.5104 10.5573 74.5312 10.3125L70.2109 17H67.9688V8.35938H69.7266ZM82.2812 17.1562C80.974 17.1562 79.9792 16.776 79.2969 16.0156C78.6198 15.25 78.2812 14.1536 78.2812 12.7266C78.2812 11.2734 78.6354 10.1562 79.3438 9.375C80.0573 8.59375 81.0859 8.20312 82.4297 8.20312C83.3411 8.20312 84.1615 8.3724 84.8906 8.71094L84.3359 10.1875C83.5599 9.88542 82.9193 9.73438 82.4141 9.73438C80.9193 9.73438 80.1719 10.7266 80.1719 12.7109C80.1719 13.6797 80.3568 14.4089 80.7266 14.8984C81.1016 15.3828 81.6484 15.625 82.3672 15.625C83.1849 15.625 83.9583 15.4219 84.6875 15.0156V16.6172C84.3594 16.8099 84.0078 16.9479 83.6328 17.0312C83.263 17.1146 82.8125 17.1562 82.2812 17.1562ZM92.125 17L91.7578 15.7969H91.6953C91.2786 16.3229 90.8594 16.6823 90.4375 16.875C90.0156 17.0625 89.474 17.1562 88.8125 17.1562C87.9635 17.1562 87.2995 16.9271 86.8203 16.4688C86.3464 16.0104 86.1094 15.362 86.1094 14.5234C86.1094 13.6328 86.4401 12.9609 87.1016 12.5078C87.763 12.0547 88.7708 11.8073 90.125 11.7656L91.6172 11.7188V11.2578C91.6172 10.7057 91.487 10.2943 91.2266 10.0234C90.9714 9.7474 90.5729 9.60938 90.0312 9.60938C89.5885 9.60938 89.1641 9.67448 88.7578 9.80469C88.3516 9.9349 87.9609 10.0885 87.5859 10.2656L86.9922 8.95312C87.4609 8.70833 87.974 8.52344 88.5312 8.39844C89.0885 8.26823 89.6146 8.20312 90.1094 8.20312C91.2083 8.20312 92.0365 8.44271 92.5938 8.92188C93.1562 9.40104 93.4375 10.1536 93.4375 11.1797V17H92.125ZM89.3906 15.75C90.0573 15.75 90.5911 15.5651 90.9922 15.1953C91.3984 14.8203 91.6016 14.2969 91.6016 13.625V12.875L90.4922 12.9219C89.6276 12.9531 88.9974 13.099 88.6016 13.3594C88.2109 13.6146 88.0156 14.0078 88.0156 14.5391C88.0156 14.9245 88.1302 15.224 88.3594 15.4375C88.5885 15.6458 88.9323 15.75 89.3906 15.75ZM102.492 8.35938V9.79688H99.6797V17H97.8359V9.79688H95.0234V8.35938H102.492ZM105.992 11.8125H108.156C110.568 11.8125 111.773 12.6458 111.773 14.3125C111.773 15.1927 111.466 15.862 110.852 16.3203C110.237 16.7734 109.339 17 108.156 17H104.156V8.35938H105.992V11.8125ZM109.93 14.3594C109.93 13.9271 109.766 13.625 109.438 13.4531C109.109 13.2812 108.646 13.1953 108.047 13.1953H105.992V15.6406H108.078C108.682 15.6406 109.141 15.5312 109.453 15.3125C109.771 15.0938 109.93 14.776 109.93 14.3594ZM117.297 17.1562C115.99 17.1562 114.995 16.776 114.312 16.0156C113.635 15.25 113.297 14.1536 113.297 12.7266C113.297 11.2734 113.651 10.1562 114.359 9.375C115.073 8.59375 116.102 8.20312 117.445 8.20312C118.357 8.20312 119.177 8.3724 119.906 8.71094L119.352 10.1875C118.576 9.88542 117.935 9.73438 117.43 9.73438C115.935 9.73438 115.188 10.7266 115.188 12.7109C115.188 13.6797 115.372 14.4089 115.742 14.8984C116.117 15.3828 116.664 15.625 117.383 15.625C118.201 15.625 118.974 15.4219 119.703 15.0156V16.6172C119.375 16.8099 119.023 16.9479 118.648 17.0312C118.279 17.1146 117.828 17.1562 117.297 17.1562ZM122.617 17H120.562L122.969 13.4609C122.385 13.2943 121.927 12.9974 121.594 12.5703C121.26 12.138 121.094 11.6042 121.094 10.9688C121.094 10.151 121.385 9.51302 121.969 9.05469C122.552 8.59115 123.349 8.35938 124.359 8.35938H128.297V17H126.453V13.6719H124.711L122.617 17ZM122.883 10.9844C122.883 11.4271 123.049 11.7604 123.383 11.9844C123.721 12.2031 124.174 12.3125 124.742 12.3125H126.453V9.75H124.453C123.953 9.75 123.565 9.85677 123.289 10.0703C123.018 10.2839 122.883 10.5885 122.883 10.9844Z" fill="white"/>
<path d="M2.1825 7.8117L2.66661 7.93676L2.1825 7.8117ZM4.78833 5.35907L4.88251 5.85013L4.78833 5.35907ZM6.32559 11.8504L6.18453 11.3707L6.32559 11.8504ZM7.14962 12.6744L6.66994 12.5333L7.14962 12.6744ZM11.1883 16.8175L11.3134 17.3016L11.1883 16.8175ZM13.6409 14.2117L14.132 14.3058L13.6409 14.2117ZM14.9474 7.39962L14.4563 7.30544V7.30544L14.9474 7.39962ZM11.6004 4.05263L11.5062 3.56158L11.6004 4.05263ZM3.27887 15.014C3.08361 15.2093 3.08361 15.5259 3.27887 15.7211C3.47414 15.9164 3.79072 15.9164 3.98598 15.7211L3.27887 15.014ZM5.03895 14.6682C5.23421 14.4729 5.23421 14.1563 5.03895 13.9611C4.84369 13.7658 4.52711 13.7658 4.33184 13.9611L5.03895 14.6682ZM3.80536 17.6465C3.6101 17.8417 3.6101 18.1583 3.80536 18.3536C4.00062 18.5488 4.3172 18.5488 4.51247 18.3536L3.80536 17.6465ZM5.56544 17.3006C5.7607 17.1053 5.7607 16.7888 5.56544 16.5935C5.37017 16.3982 5.05359 16.3982 4.85833 16.5935L5.56544 17.3006ZM0.646447 14.4876C0.451185 14.6828 0.451184 14.9994 0.646447 15.1947C0.841709 15.3899 1.15829 15.3899 1.35355 15.1947L0.646447 14.4876ZM2.40652 14.1417C2.60179 13.9464 2.60179 13.6298 2.40652 13.4346C2.21126 13.2393 1.89468 13.2393 1.69942 13.4346L2.40652 14.1417ZM14.4563 7.30544L13.1499 14.1175L14.132 14.3058L15.4384 7.49379L14.4563 7.30544ZM4.88251 5.85013L11.6945 4.54368L11.5062 3.56158L4.69416 4.86802L4.88251 5.85013ZM2.66661 7.93676C2.94138 6.87311 3.80668 6.05645 4.88251 5.85013L4.69416 4.86802C3.23569 5.14773 2.06904 6.25184 1.69839 7.68665L2.66661 7.93676ZM6.18453 11.3707C4.09092 11.9864 2.11746 10.0626 2.66661 7.93676L1.69839 7.68665C0.958351 10.5514 3.61526 13.1686 6.46666 12.3301L6.18453 11.3707ZM7.62931 12.8155C7.88917 11.9318 7.06818 11.1108 6.18453 11.3707L6.46666 12.3301C6.59098 12.2935 6.7065 12.409 6.66994 12.5333L7.62931 12.8155ZM11.0633 16.3334C8.93744 16.8826 7.01363 14.9091 7.62931 12.8155L6.66994 12.5333C5.83141 15.3847 8.44857 18.0417 11.3134 17.3016L11.0633 16.3334ZM13.1499 14.1175C12.9436 15.1933 12.1269 16.0586 11.0633 16.3334L11.3134 17.3016C12.7482 16.931 13.8523 15.7643 14.132 14.3058L13.1499 14.1175ZM15.4384 7.49379C15.8857 5.16173 13.8383 3.11433 11.5062 3.56158L11.6945 4.54368C13.3325 4.22956 14.7704 5.66753 14.4563 7.30544L15.4384 7.49379ZM3.98598 15.7211L5.03895 14.6682L4.33184 13.9611L3.27887 15.014L3.98598 15.7211ZM4.51247 18.3536L5.56544 17.3006L4.85833 16.5935L3.80536 17.6465L4.51247 18.3536ZM1.35355 15.1947L2.40652 14.1417L1.69942 13.4346L0.646447 14.4876L1.35355 15.1947Z" fill="white"/>
</svg>
