<svg width="116" height="81" viewBox="0 0 116 81" fill="none" xmlns="http://www.w3.org/2000/svg">
<path d="M11.6933 74.2646H10.8867L8.48805 76.7942V74.2646H7.8335V78.6481H8.48805V77.5881L9.41288 76.6379L10.9711 78.6481H11.7439L9.86051 76.165L11.6933 74.2646Z" fill="#545555"/>
<path d="M14.5186 77.9217L12.9223 74.2646H12.2002L14.1934 78.6312C13.9316 79.2519 13.6824 79.4546 13.2939 79.4546C13.0152 79.4546 12.821 79.404 12.6056 79.2942L12.386 79.8136C12.6816 79.9572 12.9561 80.0332 13.3193 80.0332C13.9823 80.0332 14.4046 79.7038 14.7762 78.7959L16.6174 74.2646H15.9248L14.5186 77.9217Z" fill="#545555"/>
<path d="M17.656 78.6481H18.3106V74.8432H20.8021V78.6481H21.4567V74.2646H17.656V78.6481Z" fill="#545555"/>
<path d="M24.7886 77.9217L23.1923 74.2646H22.4702L24.4634 78.6312C24.2016 79.2519 23.9525 79.4546 23.564 79.4546C23.2852 79.4546 23.091 79.404 22.8756 79.2942L22.656 79.8136C22.9516 79.9572 23.2261 80.0332 23.5893 80.0332C24.2523 80.0332 24.6746 79.7038 25.0462 78.7959L26.8874 74.2646H26.1906L24.7886 77.9217Z" fill="#545555"/>
<path d="M28.5808 77.7359V74.2646H27.9263V78.6481H28.5555L31.1653 75.181V78.6481H31.8198V74.2646H31.1822L28.5808 77.7359Z" fill="#545555"/>
<path d="M31.0472 72.6007L30.5995 72.5078C30.4982 72.871 30.2701 73.1032 29.8521 73.1032C29.4382 73.1032 29.206 72.8752 29.1046 72.5078L28.657 72.6007C28.7583 73.2046 29.2186 73.6353 29.8521 73.6353C30.4897 73.6353 30.9458 73.2046 31.0472 72.6007Z" fill="#545555"/>
<path d="M38.0783 76.5704L36.444 74.2646H35.8232V78.6481H36.4609V75.3077L38.0614 77.529L39.683 75.3077V78.6481H40.346V74.2646H39.7168L38.0783 76.5704Z" fill="#545555"/>
<path d="M43.6357 74.1719C42.4238 74.1719 41.5327 75.1896 41.5327 76.4607C41.5327 77.8247 42.5167 78.7495 43.7202 78.7495C44.5521 78.7495 45.0842 78.4202 45.5276 77.9261L45.1222 77.5629C44.7675 77.9345 44.341 78.1837 43.7413 78.1837C42.9685 78.1837 42.2928 77.6474 42.1957 76.7267H45.6712C45.6796 76.6254 45.6796 76.5578 45.6796 76.4987C45.6796 75.2065 44.9322 74.1719 43.6357 74.1719ZM42.1915 76.1989C42.2844 75.3501 42.8629 74.7251 43.6146 74.7251C44.4803 74.7251 44.9364 75.405 45.0124 76.1989H42.1915Z" fill="#545555"/>
<path d="M49.0283 74.3155C48.095 74.3155 47.5164 74.7463 47.2124 75.2657C47.28 74.4253 47.584 73.9354 48.4919 73.7032L50.8652 73.1162L50.7385 72.563L48.2977 73.1415C46.769 73.5047 46.6592 74.8645 46.6592 76.2792C46.6592 77.8079 47.5502 78.7454 48.8804 78.7454C50.1769 78.7454 51.1271 77.7108 51.1271 76.4903C51.1313 75.291 50.1727 74.3155 49.0283 74.3155ZM48.9016 78.1668C48.019 78.1668 47.3306 77.4278 47.3306 76.5114C47.3306 75.5951 47.9767 74.856 48.8847 74.856C49.7673 74.856 50.4556 75.5951 50.4556 76.5114C50.4556 77.4278 49.8095 78.1668 48.9016 78.1668Z" fill="#545555"/>
<path d="M52.9303 74.628C52.9303 77.9177 52.4911 78.1499 51.9632 78.1499C51.8872 78.1499 51.7352 78.1161 51.6507 78.0908L51.5747 78.6525C51.7098 78.6862 51.9548 78.72 52.0984 78.72C52.9303 78.72 53.5468 78.3653 53.5468 74.9447V74.8434H55.3796V78.6525H56.0341V74.269H52.9303V74.628Z" fill="#545555"/>
<path d="M58.209 74.2646H57.5544V78.6481H58.209V74.2646Z" fill="#545555"/>
<path d="M58.2597 72.584H57.5122V73.3061H58.2597V72.584Z" fill="#545555"/>
<path d="M62.2715 78.6481H62.9218V74.8432H65.4176V78.6481H66.0679V74.2646H62.2715V78.6481Z" fill="#545555"/>
<path d="M69.8602 74.1719C69.0536 74.1719 68.5384 74.6195 68.1795 75.1474V74.2648H67.5249V80.008H68.1795V77.812C68.5173 78.3019 69.0452 78.7453 69.8602 78.7453C70.9201 78.7453 71.9548 77.8965 71.9548 76.4649C71.9548 75.0038 70.9117 74.1719 69.8602 74.1719ZM69.7419 78.1583C68.9269 78.1583 68.1541 77.4784 68.1541 76.4607C68.1541 75.443 68.9269 74.7546 69.7419 74.7546C70.5739 74.7546 71.2875 75.4176 71.2875 76.4523C71.2875 77.5291 70.5908 78.1583 69.7419 78.1583Z" fill="#545555"/>
<path d="M75.1768 74.1719C73.855 74.1719 72.8879 75.2234 72.8879 76.4607C72.8879 77.7149 73.8465 78.7495 75.1599 78.7495C76.4817 78.7495 77.4572 77.698 77.4572 76.4607C77.4614 75.2065 76.4943 74.1719 75.1768 74.1719ZM75.1768 78.1668C74.2519 78.1668 73.5552 77.4024 73.5552 76.4607C73.5552 75.519 74.2097 74.7462 75.1599 74.7462C76.0847 74.7462 76.7899 75.519 76.7899 76.4607C76.7899 77.4024 76.1269 78.1668 75.1768 78.1668Z" fill="#545555"/>
<path d="M80.6498 78.1668C79.7335 78.1668 79.0367 77.4109 79.0367 76.4607C79.0367 75.5021 79.7166 74.7462 80.6076 74.7462C81.2031 74.7462 81.6085 75.0249 81.9547 75.3923L82.3686 74.9531C81.9632 74.5224 81.4438 74.1719 80.6118 74.1719C79.3323 74.1719 78.3652 75.2234 78.3652 76.4607C78.3652 77.7065 79.3323 78.7495 80.6118 78.7495C81.4353 78.7495 81.959 78.3948 82.4024 77.9007L81.9716 77.5038C81.6253 77.8796 81.2115 78.1668 80.6498 78.1668Z" fill="#545555"/>
<path d="M82.9724 74.8432H84.5433V78.6481H85.2064V74.8432H86.7731V74.2646H82.9724V74.8432Z" fill="#545555"/>
<path d="M89.5728 74.1719C88.251 74.1719 87.2839 75.2234 87.2839 76.4607C87.2839 77.7149 88.2425 78.7495 89.5559 78.7495C90.8776 78.7495 91.8531 77.698 91.8531 76.4607C91.8531 75.2065 90.8861 74.1719 89.5728 74.1719ZM89.5728 78.1668C88.6479 78.1668 87.9512 77.4024 87.9512 76.4607C87.9512 75.519 88.6057 74.7462 89.5559 74.7462C90.4807 74.7462 91.1859 75.519 91.1859 76.4607C91.1859 77.4024 90.5229 78.1668 89.5728 78.1668Z" fill="#545555"/>
<path d="M93.838 73.1963V72.7148H93.0736V73.1963L93.2721 76.9716H93.6353L93.838 73.1963Z" fill="#545555"/>
<path d="M93.8464 77.7612H93.0652V78.6523H93.8464V77.7612Z" fill="#545555"/>
<path d="M73.686 17.538L56.1397 0.0761719H46.2665L0.118164 46.2583H15.95L51.2749 10.9165L73.6903 33.222L90.4638 16.571V46.2625H101.638V0.0761719H90.4638L73.686 17.538Z" fill="#1C964D"/>
<path d="M27.8376 12.0567L15.8149 0.0297852H0L19.9281 19.9621L27.8376 12.0567Z" fill="#604337"/>
<path d="M62.0856 46.2412L42.2758 26.4736L34.3535 34.3916L46.2158 46.2412H62.0856Z" fill="#604337"/>
<path d="M104.256 0.962832H106.139V5.92901H107.191V0.962832H109.07V0H104.256V0.962832Z" fill="#604337"/>
<path d="M114.894 0L113.086 2.80403L111.283 0H110.172V5.92901H111.199V1.6934L113.052 4.4721H113.086L114.961 1.67651V5.92901H116V0H114.894Z" fill="#604337"/>
<path d="M6.05992 60.3414L9.3876 55.4766H6.90029L4.79304 58.7071L2.70268 55.4766H0.14358L3.47126 60.371L0 65.4343H2.48731L4.73814 62.0221L6.97208 65.4343H9.53118L6.05992 60.3414Z" fill="#604337"/>
<path d="M14.0582 60.7853C12.2508 60.7853 10.9839 61.5538 10.9839 63.2177C10.9839 64.7548 12.1663 65.5783 13.6021 65.5783C14.6536 65.5783 15.38 65.194 15.9078 64.6113V65.4347H17.9982V61.0091C17.9982 59.9829 17.7406 59.1468 17.1747 58.5767C16.6342 58.0361 15.7811 57.7236 14.5987 57.7236C13.3023 57.7236 12.4788 57.9643 11.6384 58.336L12.179 59.9871C12.8758 59.7295 13.4585 59.5733 14.2862 59.5733C15.3673 59.5733 15.9205 60.0716 15.9205 60.9669V61.0935C15.38 60.912 14.8268 60.7853 14.0582 60.7853ZM15.9501 62.3646V62.7489C15.9501 63.5302 15.2659 64.0876 14.2567 64.0876C13.5599 64.0876 13.0742 63.7456 13.0742 63.1628C13.0742 62.4491 13.6443 62.0817 14.5692 62.0817C15.097 62.0817 15.5784 62.1957 15.9501 62.3646Z" fill="#604337"/>
<path d="M24.8985 57.6685C23.7752 57.6685 23.0489 58.1963 22.521 58.9058V57.812H20.3589V67.7148H22.521V64.4421C23.032 65.0544 23.7457 65.578 24.8985 65.578C26.706 65.578 28.3698 64.1845 28.3698 61.638C28.3698 59.062 26.6764 57.6685 24.8985 57.6685ZM24.3453 63.7453C23.3361 63.7453 22.4957 62.9049 22.4957 61.6422C22.4957 60.3458 23.3361 59.5097 24.3453 59.5097C25.3546 59.5097 26.2077 60.35 26.2077 61.6127C26.2077 62.9176 25.3546 63.7453 24.3453 63.7453Z" fill="#604337"/>
<path d="M35.0463 60.9412L37.8461 57.812H35.3588L32.6265 60.9412V57.812H30.4644V65.4344H32.6265V63.6017L33.6105 62.5333L35.6417 65.4344H38.205L35.0463 60.9412Z" fill="#604337"/>
<path d="M41.9761 55.0503H39.7V56.9717H41.9761V55.0503Z" fill="#604337"/>
<path d="M41.917 57.812H39.7549V65.4386H41.917V57.812Z" fill="#604337"/>
<path d="M49.9701 61.4395C50.6246 61.1566 51.1778 60.6414 51.1778 59.7166C51.1778 58.5215 50.1685 57.812 48.6314 57.812H44.4507V65.4386H48.6187C50.3839 65.4386 51.465 64.6574 51.465 63.361C51.465 62.2926 50.8949 61.7225 49.9701 61.4395ZM46.5875 59.4041H48.1373C48.7623 59.4041 49.0199 59.7292 49.0199 60.1008C49.0199 60.5443 48.7201 60.8694 48.1078 60.8694H46.5875V59.4041ZM48.2936 63.7452H46.5875V62.2377H48.2387C48.9777 62.2377 49.2775 62.567 49.2775 62.9767C49.2733 63.4285 48.9608 63.7452 48.2936 63.7452Z" fill="#604337"/>
<path d="M68.4413 65.4343V55.4766H66.0807L63.4625 59.6911L60.8443 55.4766H58.4836V65.4343H60.6289V58.9774L63.4034 63.1877H63.4625L66.2623 58.9352V65.4343H68.4413Z" fill="#604337"/>
<path d="M74.5011 57.6685C72.2798 57.6685 70.73 59.4632 70.73 61.638C70.73 63.9986 72.4234 65.6076 74.7122 65.6076C76.0931 65.6076 77.1151 65.067 77.8287 64.1845L76.5914 63.0907C75.996 63.6439 75.4681 63.872 74.7418 63.872C73.7747 63.872 73.0906 63.361 72.8795 62.377H78.1877C78.2004 62.1786 78.2173 61.9759 78.2173 61.8069C78.2173 59.649 77.0475 57.6685 74.5011 57.6685ZM72.8541 61.0257C73.023 60.0417 73.61 59.4041 74.5053 59.4041C75.4174 59.4041 75.9833 60.0586 76.1142 61.0257H72.8541Z" fill="#604337"/>
<path d="M84.4757 58.095C82.909 58.095 81.9842 58.8763 81.7013 59.3746C81.7604 58.6482 82.1404 57.867 83.5509 57.5841L87.7316 56.7564L87.3896 55.0503L83.306 55.8062C80.447 56.3341 80.105 58.7665 80.105 61.0553C80.105 63.986 81.5154 65.6076 84.0872 65.6076C86.4056 65.6076 88.0863 63.8593 88.0863 61.7521C88.0906 59.6617 86.4141 58.095 84.4757 58.095ZM84.121 63.7453C83.0526 63.7453 82.2587 62.8627 82.2587 61.7817C82.2587 60.671 82.9977 59.7884 84.0957 59.7884C85.1641 59.7884 85.958 60.6879 85.958 61.7817C85.958 62.8754 85.2316 63.7453 84.121 63.7453Z" fill="#604337"/>
<path d="M89.5179 63.686C89.4165 63.686 89.1463 63.6564 89.0618 63.6437L88.9182 65.392C89.2012 65.4638 89.729 65.5187 90.012 65.5187C91.9165 65.5187 92.7864 64.7079 92.7864 59.6573H94.7205V65.4342H96.8827V57.8076H90.7552C90.7552 63.2172 90.3287 63.686 89.5179 63.686Z" fill="#604337"/>
<path d="M101.583 57.812H99.4208V65.4386H101.583V57.812Z" fill="#604337"/>
<path d="M101.638 55.0503H99.3616V56.9717H101.638V55.0503Z" fill="#604337"/>
</svg>
