<svg width="41" height="41" viewBox="0 0 41 41" fill="none" xmlns="http://www.w3.org/2000/svg">
<circle cx="20.33" cy="20.33" r="20.33" fill="#72BF44"/>
<path d="M10.7276 9.81808C10.6271 9.41624 10.2199 9.17193 9.81808 9.2724C9.41624 9.37287 9.17193 9.78007 9.2724 10.1819L10.7276 9.81808ZM14.7656 24.7854L15.2165 24.186L14.7656 24.7854ZM12.0213 18.2517L12.7506 18.0769L12.0213 18.2517ZM14.5857 24.6435L15.0635 24.0654L14.5857 24.6435ZM31.0192 18.7425L31.7485 18.9173L31.0192 18.7425ZM28.8897 24.3575L28.3643 23.8223L28.8897 24.3575ZM28.0404 25.0273L28.4384 25.663L28.0404 25.0273ZM30.9421 14.756L31.4568 14.2105L30.9421 14.756ZM31.3038 15.2146L31.9542 14.8412L31.3038 15.2146ZM23.0001 18.25C22.5859 18.25 22.2501 18.5858 22.2501 19C22.2501 19.4142 22.5859 19.75 23.0001 19.75V18.25ZM26.0001 21.25C25.5859 21.25 25.2501 21.5858 25.2501 22C25.2501 22.4142 25.5859 22.75 26.0001 22.75V21.25ZM11.0527 14.9605H27.445V13.4605H11.0527V14.9605ZM22.0837 25.0395H21.5791V26.5395H22.0837V25.0395ZM12.7506 18.0769L11.7821 14.0357L10.3234 14.3853L11.2919 18.4265L12.7506 18.0769ZM11.7803 14.0286L10.7276 9.81808L9.2724 10.1819L10.3251 14.3924L11.7803 14.0286ZM21.5791 25.0395C19.7352 25.0395 18.4166 25.0383 17.39 24.919C16.3823 24.8019 15.738 24.5783 15.2165 24.186L14.3148 25.3848C15.1283 25.9966 16.0646 26.275 17.2168 26.4089C18.35 26.5406 19.7706 26.5395 21.5791 26.5395V25.0395ZM11.2919 18.4265C11.7134 20.1852 12.0434 21.5669 12.4356 22.6383C12.8344 23.7275 13.3234 24.5731 14.1079 25.2216L15.0635 24.0654C14.5605 23.6496 14.1929 23.0752 13.8442 22.1226C13.4888 21.152 13.1804 19.87 12.7506 18.0769L11.2919 18.4265ZM15.2165 24.186C15.1646 24.147 15.1136 24.1067 15.0635 24.0654L14.1079 25.2216C14.1756 25.2775 14.2446 25.332 14.3148 25.3848L15.2165 24.186ZM22.0837 26.5395C23.6483 26.5395 24.8774 26.5404 25.8659 26.4404C26.8695 26.3389 27.6953 26.1283 28.4384 25.663L27.6424 24.3917C27.1682 24.6885 26.5955 24.859 25.715 24.948C24.8194 25.0386 23.6788 25.0395 22.0837 25.0395V26.5395ZM28.3643 23.8223C28.145 24.0376 27.9029 24.2285 27.6424 24.3917L28.4384 25.663C28.7909 25.4423 29.1184 25.184 29.4151 24.8927L28.3643 23.8223ZM27.445 14.9605C28.4375 14.9605 29.1131 14.9618 29.6157 15.0232C30.106 15.083 30.3071 15.1879 30.4273 15.3014L31.4568 14.2105C30.9991 13.7786 30.4246 13.6108 29.7974 13.5342C29.1826 13.4592 28.3986 13.4605 27.445 13.4605V14.9605ZM31.7485 18.9173C31.9708 17.99 32.1548 17.2279 32.2251 16.6125C32.2969 15.9847 32.2676 15.387 31.9542 14.8412L30.6534 15.5881C30.7357 15.7315 30.7909 15.9514 30.7348 16.4422C30.6773 16.9453 30.5212 17.6026 30.2898 18.5677L31.7485 18.9173ZM30.4273 15.3014C30.5163 15.3854 30.5925 15.482 30.6534 15.5881L31.9542 14.8412C31.8202 14.6078 31.6526 14.3953 31.4568 14.2105L30.4273 15.3014ZM30.0001 21.25H26.0001V22.75H30.0001V21.25ZM30.9575 18.25L23.0001 18.25V19.75L30.9575 19.75V18.25ZM30.2898 18.5677C30.269 18.6548 30.2484 18.7405 30.2281 18.8251L31.6868 19.1749C31.7071 19.0903 31.7277 19.0044 31.7485 18.9173L30.2898 18.5677ZM30.2281 18.8251C29.9305 20.0658 29.699 21.0133 29.4566 21.7717L30.8855 22.2283C31.148 21.4067 31.3925 20.4015 31.6868 19.1749L30.2281 18.8251ZM29.4566 21.7717C29.1309 22.791 28.8104 23.3844 28.3643 23.8223L29.4151 24.8927C30.1139 24.2067 30.5286 23.3453 30.8855 22.2283L29.4566 21.7717ZM30.0001 22.75H30.1711V21.25H30.0001V22.75Z" fill="white"/>
<path d="M19.4738 28.9474C19.4738 29.5288 19.0025 30 18.4212 30C17.8398 30 17.3685 29.5288 17.3685 28.9474C17.3685 28.3661 17.8398 27.8948 18.4212 27.8948C19.0025 27.8948 19.4738 28.3661 19.4738 28.9474Z" fill="white"/>
<path d="M25.7896 28.9474C25.7896 29.5288 25.3183 30 24.737 30C24.1556 30 23.6843 29.5288 23.6843 28.9474C23.6843 28.3661 24.1556 27.8948 24.737 27.8948C25.3183 27.8948 25.7896 28.3661 25.7896 28.9474Z" fill="white"/>
</svg>
